<?xml version="1.0" ?><svg height="24px" version="1.1" viewBox="0 0 24 24" width="24px" xmlns="http://www.w3.org/2000/svg" xmlns:xlink="http://www.w3.org/1999/xlink"><title/><desc/><g fill="none" fill-rule="evenodd" id="shopping" stroke="none" stroke-width="1"><g fill="#000000" fill-rule="nonzero" id="external_link" transform="translate(-13.000000, -13.000000)"><path d="M22.6565145,19.25 C23.070728,19.25 23.4065145,19.5857864 23.4065145,20 C23.4065145,20.3796958 23.1243606,20.693491 22.758285,20.7431534 L22.6565145,20.75 L18.0833333,20.75 C17.9222503,20.75 17.7878542,20.8642607 17.7567721,21.016155 L17.75,21.0833333 L17.75,31.9166667 C17.75,32.0777497 17.8642607,32.2121458 18.016155,32.2432279 L18.0833333,32.25 L28.9166667,32.25 C29.0777497,32.25 29.2121458,32.1357393 29.2432279,31.983845 L29.25,31.9166667 L29.25,27.3093669 C29.25,26.8951533 29.5857864,26.5593669 30,26.5593669 C30.3796958,26.5593669 30.693491,26.8415207 30.7431534,27.2075963 L30.75,27.3093669 L30.75,31.9166667 C30.75,32.8785626 30.0092178,33.6674396 29.0670285,33.7439226 L28.9166667,33.75 L18.0833333,33.75 C17.1214374,33.75 16.3325604,33.0092178 16.2560774,32.0670285 L16.25,31.9166667 L16.25,21.0833333 C16.25,20.1214374 16.9907822,19.3325604 17.9329715,19.2560774 L18.0833333,19.25 L22.6565145,19.25 Z M25.8982294,16.2568466 L26,16.25 L33,16.25 L33.0694695,16.2531746 L33.0694695,16.2531746 L33.171367,16.2697347 L33.171367,16.2697347 L33.2392836,16.2889803 L33.2392836,16.2889803 L33.2981386,16.3116016 L33.2981386,16.3116016 L33.3690453,16.3468608 L33.3690453,16.3468608 L33.4514416,16.4009677 L33.4514416,16.4009677 L33.5315788,16.4709192 L33.5315788,16.4709192 C33.5673834,16.5067232 33.5997491,16.5466889 33.6274273,16.5888302 L33.6776949,16.6782296 L33.6776949,16.6782296 L33.7177252,16.7818445 L33.7177252,16.7818445 C33.7290814,16.818934 33.7377062,16.8580769 33.7431534,16.8982294 L33.75,17 L33.75,24 C33.75,24.4142136 33.4142136,24.75 33,24.75 C32.6203042,24.75 32.306509,24.4678461 32.2568466,24.1017706 L32.25,24 L32.25,18.81 L23.5303301,27.5303301 C23.2374369,27.8232233 22.7625631,27.8232233 22.4696699,27.5303301 C22.2034034,27.2640635 22.1791973,26.8473998 22.3970518,26.5537883 L22.4696699,26.4696699 L31.188,17.75 L26,17.75 C25.6203042,17.75 25.306509,17.4678461 25.2568466,17.1017706 L25.25,17 C25.25,16.6203042 25.5321539,16.306509 25.8982294,16.2568466 Z" id="Shape"/></g></g></svg>