<?xml version="1.0" ?><svg fill="none" height="24" viewBox="0 0 24 24" width="24" xmlns="http://www.w3.org/2000/svg"><path clip-rule="evenodd" d="M1.5 6.5C1.5 3.73858 3.73858 1.5 6.5 1.5C7.76975 1.5 8.92966 1.97387 9.81122 2.75349C10.5143 2.58765 11.2472 2.5 12 2.5C17.2467 2.5 21.5 6.75329 21.5 12C21.5 12.7528 21.4123 13.4857 21.2465 14.1888C22.0261 15.0703 22.5 16.2302 22.5 17.5C22.5 20.2614 20.2614 22.5 17.5 22.5C16.2302 22.5 15.0703 22.0261 14.1888 21.2465C13.4857 21.4123 12.7528 21.5 12 21.5C6.75329 21.5 2.5 17.2467 2.5 12C2.5 11.2472 2.58765 10.5143 2.75349 9.81122C1.97387 8.92966 1.5 7.76975 1.5 6.5ZM6.5 2.5C4.29086 2.5 2.5 4.29086 2.5 6.5C2.5 7.59876 2.94236 8.59323 3.65986 9.31667C3.78508 9.44292 3.83382 9.62617 3.78788 9.79794C3.6002 10.4997 3.5 11.2378 3.5 12C3.5 16.6944 7.30558 20.5 12 20.5C12.7622 20.5 13.5003 20.3998 14.2021 20.2121C14.3738 20.1662 14.5571 20.2149 14.6833 20.3401C15.4068 21.0576 16.4012 21.5 17.5 21.5C19.7091 21.5 21.5 19.7091 21.5 17.5C21.5 16.4012 21.0576 15.4068 20.3401 14.6833C20.2149 14.5571 20.1662 14.3738 20.2121 14.2021C20.3998 13.5003 20.5 12.7622 20.5 12C20.5 7.30558 16.6944 3.5 12 3.5C11.2378 3.5 10.4997 3.6002 9.79794 3.78788C9.62617 3.83382 9.44292 3.78508 9.31667 3.65986C8.59323 2.94236 7.59876 2.5 6.5 2.5Z" fill="black" fill-rule="evenodd"/><path clip-rule="evenodd" d="M8.5 9.74342C8.5 8.50441 9.50441 7.5 10.7434 7.5H13C14.3807 7.5 15.5 8.61929 15.5 10V10.5H14.5V10C14.5 9.17157 13.8284 8.5 13 8.5H10.7434C10.0567 8.5 9.5 9.0567 9.5 9.74342C9.5 10.2786 9.84247 10.7538 10.3502 10.923L13.966 12.1283C14.8821 12.4337 15.5 13.2909 15.5 14.2566C15.5 15.4956 14.4956 16.5 13.2566 16.5H11C9.61929 16.5 8.5 15.3807 8.5 14V13.5H9.5V14C9.5 14.8284 10.1716 15.5 11 15.5H13.2566C13.9433 15.5 14.5 14.9433 14.5 14.2566C14.5 13.7214 14.1575 13.2462 13.6498 13.077L10.034 11.8717C9.1179 11.5663 8.5 10.7091 8.5 9.74342Z" fill="black" fill-rule="evenodd"/></svg>