<svg viewBox="0 0 16 16" xmlns="http://www.w3.org/2000/svg"><path d="m13 15h-2.7558256c.8807516-.5084322 1.6485113-1.1907336 2.2563749-2h.4994507v-1l3 2-3 2zm-6-12.98105518c3.3562239.25531243 6 3.0594403 6 6.48105518 0 3.4216149-2.6437761 6.2257427-6 6.4810552v.0189448h-7v-2h1.80957219c-1.12076812-1.1678945-1.80957219-2.7535079-1.80957219-4.5 0-1.75071086.6971736-3.39057767 1.90429543-4.59677843l1.62368656 1.21776492c-.96534151.84985851-1.52798199 2.06778665-1.52798199 3.37901351 0 2.4852814 2.01471863 4.5 4.5 4.5s4.5-2.0147186 4.5-4.5c0-2.31627683-1.75002477-4.22381347-4-4.47253561v1.97253561l-4-3 4-3z" fill="black" fill-rule="evenodd"/></svg>