<svg height="32" viewBox="0 0 32 32" width="32" xmlns="http://www.w3.org/2000/svg"><path d="m26.667 0h-21.333c-2.943.01-5.323 2.391-5.333 5.333v21.333c0 2.932 2.401 5.333 5.333 5.333h21.333c2.932 0 5.333-2.401 5.333-5.333v-21.333c0-2.932-2.401-5.333-5.333-5.333zm-2.917 22.474c-.266.641-.688 1.208-1.229 1.646-.563.453-1.271.828-2.146 1.094-.87.271-1.906.406-3.109.406h-8.573v-18.667h9.068c1.677 0 3.021.375 4.026 1.146 1.016.771 1.516 1.927 1.516 3.479 0 .943-.229 1.745-.688 2.411s-1.12 1.182-1.974 1.542v.063c1.141.24 2.021.781 2.599 1.62s.88 1.901.88 3.182c0 .719-.141 1.401-.401 2.036l.031.036zm-3.703-4.599c-.542-.5-1.313-.745-2.302-.745h-5.766v5.823h5.781c.984 0 1.76-.255 2.307-.771s.823-1.25.823-2.188c-.01-.922-.276-1.635-.823-2.12h-.026zm-.797-3.766c.526-.448.786-1.089.786-1.927 0-.938-.234-1.604-.708-1.984-.469-.38-1.146-.578-2.036-.578h-5.333v5.151h5.333c.776 0 1.443-.229 1.953-.661z"/></svg>