<svg enable-background="new 0 0 24 24" viewBox="0 0 24 24" xmlns="http://www.w3.org/2000/svg"><path d="m19.7 17.6c-.1-.2-.2-.4-.2-.6 0-.4-.2-.7-.5-1-.1-.1-.3-.2-.4-.2.6-1.8-.3-3.6-1.3-4.9-.8-1.2-2-2.1-1.9-3.7 0-1.9.2-5.4-3.3-5.1-3.6.2-2.6 3.9-2.7 5.2 0 1.1-.5 2.2-1.3 3.1-.2.2-.4.5-.5.7-1 1.2-1.5 2.8-1.5 4.3-.2.2-.4.4-.5.6-.1.1-.2.2-.2.3-.1.1-.3.2-.5.3-.4.1-.7.3-.9.7-.1.3-.2.7-.1 1.1.1.2.1.4 0 .7-.2.4-.2.9 0 1.4.3.4.8.5 1.5.6.5 0 1.1.2 1.6.4.5.3 1.1.5 1.7.5.3 0 .7-.1 1-.2.3-.2.5-.4.6-.7.4 0 1-.2 1.7-.2.6 0 1.2.2 2 .1 0 .1 0 .2.1.3.2.5.7.9 1.3 1h.2c.8-.1 1.6-.5 2.1-1.1.4-.4.9-.7 1.4-.9.6-.3 1-.5 1.1-1 .1-.7-.1-1.1-.5-1.7zm-6.9-12.8c.6.1 1.1.6 1 1.2 0 .3-.1.6-.3.9 0 0 0 0-.1 0-.2-.1-.3-.1-.4-.2.1-.1.1-.3.2-.5 0-.4-.2-.7-.4-.7-.3 0-.5.3-.5.7v.1c-.1-.1-.3-.1-.4-.2v-.1c-.1-.5.3-1.1.9-1.2zm-.3 2c.1.1.3.2.4.2s.3.1.4.2c.2.1.4.2.4.5s-.3.6-.9.8c-.2.1-.3.1-.4.2-.3.2-.6.3-1 .3-.3 0-.6-.2-.8-.4-.1-.1-.2-.2-.4-.3-.1-.1-.3-.3-.4-.6 0-.1.1-.2.2-.3.3-.2.4-.3.5-.4l.1-.1c.2-.3.6-.5 1-.5.3.1.6.2.9.4zm-2.1-1.8c.4 0 .7.4.8 1.1v.2c-.1 0-.3.1-.4.2 0 0 0-.1 0-.2 0-.3-.2-.6-.4-.5-.2 0-.3.3-.3.6 0 .2.1.3.2.4s-.1.1-.2.1c-.2-.2-.4-.5-.4-.8 0-.6.3-1.1.7-1.1zm-1 16.1c-.7.3-1.6.2-2.2-.2-.6-.3-1.1-.4-1.8-.4-.5-.1-1-.1-1.1-.3s-.1-.5.1-1c.1-.3.1-.6 0-.9s-.1-.5 0-.8.3-.4.6-.5.5-.2.7-.4c.1-.1.2-.2.3-.4.3-.4.5-.6.8-.6.6.1 1.1 1 1.5 1.9.2.3.4.7.7 1 .4.5.9 1.2.9 1.6 0 .5-.2.8-.5 1zm4.9-2.2c0 .1 0 .1-.1.2-1.2.9-2.8 1-4.1.3-.2-.3-.4-.6-.6-.9.9-.1.7-1.3-1.2-2.5-2-1.3-.6-3.7.1-4.8.1-.1.1 0-.3.8-.3.6-.9 2.1-.1 3.2 0-.8.2-1.6.5-2.4.7-1.3 1.2-2.8 1.5-4.3.1.1.1.1.2.1.1.1.2.2.3.2.2.3.6.4.9.4h.1c.4 0 .8-.1 1.1-.4.1-.1.2-.2.4-.2.3-.1.6-.3.9-.6.4 1.3.8 2.5 1.4 3.6.4.8.7 1.6.9 2.5.3 0 .7.1 1 .3.8.4 1.1.7 1 1.2-.1 0-.1 0-.2 0 0-.3-.2-.6-.9-.9s-1.3-.3-1.5.4c-.1 0-.2.1-.3.1-.8.4-.8 1.5-.9 2.6.1.4 0 .7-.1 1.1zm4.6.6c-.6.2-1.1.6-1.5 1.1-.4.6-1.1 1-1.9.9-.4 0-.8-.3-.9-.7-.1-.6-.1-1.2.2-1.8.1-.4.2-.7.3-1.1.1-1.2.1-1.9.6-2.2 0 .5.3.8.7 1 .5 0 1-.1 1.4-.5h.2c.3 0 .5 0 .7.2s.3.5.3.7c0 .3.2.6.3.9.5.5.5.8.5.9-.1.2-.5.4-.9.6zm-9-12c-.1 0-.1 0-.1.1 0 0 0 .1.1.1.1 0 .1.1.1.1.3.4.8.6 1.4.7.5-.1 1-.2 1.5-.6.2-.1.4-.2.6-.3.1 0 .1-.1.1-.1 0-.1 0-.1-.1-.1-.2.1-.5.2-.7.3-.4.3-.9.5-1.4.5s-.9-.3-1.2-.6c-.1 0-.2-.1-.3-.1z"/></svg>