<svg height="512" width="478" xmlns="http://www.w3.org/2000/svg"><path clip-rule="evenodd" d="m238.6781158 512 204.4352875-111.6410217 34.2428284-317.3314209-238.6781159-83.0275574-238.6781158 83.0275421 34.2428207 317.3314209zm-101.5699005-382.2822571c8.7647552-.5982971 21.3273468-2.4389267 41.0216064-25.7296677 9.2341614-10.9204559 37.086319-8.49263 50.1371918 6.6621017 50.2751923-3.7342377 120.2537384 39.9385071 125.6131439 83.5700226-3.6257629 30.6866913-44.8479004 29.8844757-123.4845428-2.4141083-84.1095734 18.944931-78.807251 125.5493774-9.0505371 153.4912415-16.7803802-16.4745483-23.9266815-30.3214111-21.5200653-41.7889099 34.9026031 41.334137 74.6593933 56.7834473 119.2008667 46.3510742-19.6374817.6856079-35.1921997-5.6332092-46.8989258-19.0513306 30.1068115-.73172 58.5279846-14.7076416 85.2917175-42.0699463-15.4496765 12.2941589-31.616272 16.9495239-48.7329712 14.0211792 46.3596802-36.4476318 62.743042-79.0348969 49.1929016-127.6259918 22.414978 25.0289917 22.0273743 61.2163696-.1506348 96.067215 8.7046814-6.7667542 18.7572327-21.3736267 30.1246033-43.6509552 4.9107361 45.1478729-13.334259 79.4411163-54.9055481 102.9275055 13.272522-1.2239685 30.894104-9.9621582 52.7498169-26.2451782-47.9693298 127.2627869-232.1549988 113.8674622-279.2186584-20.2869568-36.3166656-39.1723175-2.3319321-29.797226-9.1119614-57.1613312-17.8065491-37.5657654 7.6175766-37.2419434 17.5436859-54.7381897 4.3067704-10.6866149-9.4249725-39.5706176 22.1983109-42.327774zm143.454773 33.0716553c0-5.2188416-5.6884766-8.4983215-10.2147217-5.8889008-4.5262146 2.6094208-4.5262146 9.1683807 0 11.7778015 4.5262451 2.6094208 10.2147217-.6700592 10.2147217-5.8889007z" fill-rule="evenodd"/></svg>