<svg viewBox="0 0 14 14" xmlns="http://www.w3.org/2000/svg"><path d="m9.4619768 9.6829638c.0339.0021.07045.0064.107004.0064.5175422.000529 1.0356132-.0026 1.5531552.0026.113361.0011.147263-.03761.141436-.146204-.0074-.141436-.0016-.283403-.0016-.458212.587466.432256 1.155331.849679 1.738029 1.2787572-.57846.425899-1.146326.843852-1.738029 1.279816 0-.164745 0-.300884 0-.437023 0-.175869 0-.176399-.171101-.176399-3.3091942 0-6.6189177 0-9.9281116 0-.159977 0-.159977 0-.159977-.161036 0-.349089.00477-.698178-.00265-1.0467382-.00265-.113361.033902-.138788.1424961-.138258 1.7793473.0032 3.5586946.0058 5.3380423.0011.912187-.0026 1.632083-.380343 2.108306-1.166455.859215-1.419664-.03655-3.279-1.682937-3.518436-1.2713408-.184874-2.4531579.668513-2.6687561 1.961573-.022778.13455-.024367.272808-.03761.434904.208182-.02807.3967642-.05403.6102435-.08264-.3342566.646265-.6568593 1.270281-.9842296 1.902773-.5016498-.517011-.9958835-1.026077-1.478993-1.524019.1213071-.02013.2823436-.04344.4417909-.07681.030194-.0064.074691-.05509.073632-.08317-.00901-.338495.014303-.673281.080518-1.005419.00212-.01007-.00265-.02172-.00583-.04132-.3231324-.05509-.6229569-.171631-.894706-.359154-.6642755-.459802-1.0117753-1.315308-.8486199-2.095064.1774579-.849679.8184255-1.48482 1.6469159-1.641618.5371415-.101178 1.0350832-.0048 1.4975334.279165.081578.05032.1313719.05774.1848741-.02966.031254-.05138.078399-.0927.1324314-.155209.067275.271219.1303124.524957.19282.778696.021189.08529.03761.172161.062508.256387.027016.09111-.0005297.131902-.09694.125545-.2786355-.01907-.5578007-.03602-.8364362-.05456-.068864-.0048-.1371989-.01218-.225663-.02066.068864-.08687.1313719-.164745.1997064-.25003-.1504272-.114454-.3162313-.171664-.4889217-.19974-.8348471-.136669-1.5706355.504828-1.5536843 1.34974.012713.648384.5593899 1.227903 1.2051251 1.282995.083697.0069.1128314-.03549.1451447-.098.4576826-.878285 1.1468552-1.499123 2.084469-1.822255 2.1692254-.747973 4.4338004.592232 4.8517546 2.785825.206063 1.08011-.02861 2.066458-.6838762 2.95057-.01801.02437-.03443.05032-.05032.07628-.0032.0048.0011.0143.0037.03443z"/></svg>